<svg xmlns="http://www.w3.org/2000/svg" version="1.1" width="800px" height="800px" xlink="http://www.w3.org/1999/xlink" style="overflow:hidden!important;"><g id="svga-group-wrapper" transform="scale(4 4)"><g id="svga-group-backs-single"><path id="SvgjsPath5012" d="M225 225H-25V-25h250V225z" fill="#14305c" stroke-width="none" opacity="1" stroke="none"></path><path id="SvgjsPath5013" d="M99.093,225h-0.221L-25-23.26V-25H1.992L99.093,225z M58.936-25H34.616l64.735,250h0.193L58.936-25z M-25,146.607v15.437L96.026,225h0.738L-25,146.607z M112.078-25H88.791l10.991,250h0.185L112.078-25z M-25,103.112v21.017L97.442,225h0.412L-25,103.112z M92.652,225H94.6L-25,179.631v12.78L92.652,225z M-25,36.37v33.745L98.278,225h0.281L-25,36.37z M225,162.044v-15.437L103.236,225h0.737L225,162.044z M225,192.411v-12.78L105.4,225h1.947L225,192.411z M225,124.128v-21.016L102.146,225h0.412L225,124.128z M165.383-25h-24.318l-40.609,250h0.193L165.383-25z M225,70.114V36.37L101.44,225h0.281L225,70.114z M225-23.261V-25h-26.992l-97.101,250h0.221L225-23.261z" fill="url(#SvgjsRadialGradient5014)" opacity="1"></path></g><g id="svga-group-subwrapper" ><g id="svga-group-hair-back" ><path id="SvgjsPath3575" d="M100.5,100.5h-1v-1h1V100.5z" fill="#b79675" stroke-width="none" opacity="1"></path></g><g id="svga-group-humanbody-single"><path id="SvgjsPath2890" d="M195.417 199.778c-2.196-4.746-8.195-11.779-14.86-13.722 -8.239-2.403-26.837-5.308-33.733-6.923 -5.528-1.296-16.662-11.294-20.564-14.65 -0.7-0.6-1.273-1.839-1.287-2.76 -0.139-10.864 4.195-39.724 4.195-39.724H100 70.833c0 0 4.334 28.859 4.193 39.724 -0.011 0.921-0.587 2.16-1.285 2.76 -3.902 3.356-15.036 13.354-20.564 14.65 -6.897 1.615-25.495 4.619-33.733 7.022 -6.667 1.942-12.664 8.876-14.86 13.622 -3.708 8.008-4.584 22.5-4.584 35h100 100C200 222.278 199.123 207.786 195.417 199.778z" fill="#e9b995" stroke-width="none" opacity="1" stroke="none"></path><path id="SvgjsPath2891" d="M159.156 184.058c24.342 3.542 34.586 8.708 37.794 50.721H200c0-12.5-0.877-26.992-4.583-35 -2.196-4.746-8.195-11.779-14.86-13.722 -8.239-2.403-26.837-5.308-33.733-6.923 -5.528-1.296-18.242-12.069-21.643-16.35 3.36 4.704 12.791 15.605 21.054 18.46C150.188 182.61 153.48 183.232 159.156 184.058zM53.766 181.244c8.263-2.854 17.693-13.756 21.054-18.46 -3.4 4.28-16.114 15.054-21.643 16.35 -6.896 1.615-25.494 4.619-33.733 7.022 -6.665 1.942-12.664 8.876-14.86 13.622 -3.706 8.008-4.583 22.5-4.583 35h3.05c3.188-41.744 13.475-47.183 37.794-50.721C46.52 183.232 49.813 182.61 53.766 181.244z" fill="#f8d3b8" stroke-width="none" opacity="1" stroke="none"></path><path id="SvgjsPath2892" d="M95.646 197.62c0 0-5.074-1.609-7.083-2.379 -10.449-4.009-44.395-6.607-44.395-6.607s35.754 1.419 43.644 2.779c-0.458-4.767-3.017-20.004-3.017-20.004s5.149 16.815 6.409 21.057C91.878 194.734 95.646 197.62 95.646 197.62zM106.445 196.278c-0.089 0.073-0.191 0.168-0.302 0.268C106.256 196.461 106.358 196.372 106.445 196.278zM95.646 197.62c0 0 2.893 2.992 4.347 3.03 1.91 0.051 4.828-2.899 6.151-4.104 -1.265 0.957-4.159 1.391-5.31 1.436C99.504 198.033 95.646 197.62 95.646 197.62zM116.664 190.101c-1.545 0.248-4.386 0.789-4.386 0.789l2.287-14.89c-0.646 3.071-4.474 16.211-8.12 20.278 1.91-1.616 6.158-2.391 8.324-2.704 10.236-1.484 10.232-1.483 41.062-4.94C155.831 188.634 126.76 188.479 116.664 190.101z" fill="#daa075" stroke-width="none" opacity="1" stroke="none"></path><path id="SvgjsPath2893" d="M195.417 199.778c-2.196-4.746-8.195-11.779-14.86-13.722 -8.239-2.403-26.837-5.308-33.733-6.923 -5.528-1.296-16.662-11.294-20.564-14.65 -0.7-0.6-1.273-1.839-1.287-2.76 -0.139-10.864 4.195-39.724 4.195-39.724H100 70.833c0 0 4.334 28.859 4.193 39.724 -0.011 0.921-0.587 2.16-1.285 2.76 -3.902 3.356-15.036 13.354-20.564 14.65 -6.897 1.615-25.495 4.619-33.733 7.022 -6.667 1.942-12.664 8.876-14.86 13.622 -3.708 8.008-4.584 22.5-4.584 35h100 100C200 222.278 199.123 207.786 195.417 199.778z" fill="none" stroke="#bb7440" stroke-width="1.5" opacity="1"></path></g><g id="svga-group-chinshadow-single"><path id="SvgjsPath4971" d="M124.272 162.248c-0.028-0.175-0.048-0.349-0.051-0.515 -0.094-7.38 1.819-22.721 3.098-32.078 -15.699-1.984-38.937-1.975-54.637 0.016 1.279 9.359 3.19 24.687 3.094 32.062 -0.001 0.119-0.014 0.243-0.03 0.367 3.825 3.586 7.667 6.528 11.055 8.151 5.312 2.546 21.035 2.427 26.401 0C116.613 168.71 120.456 165.812 124.272 162.248z" fill="url(#SvgjsLinearGradient4972)" opacity="1"></path></g><g id="svga-group-clothes-single" ><path id="SvgjsPath4937" d="M-4.807 234.6c1.472-10.806-0.208-11.777 4.116-33.015 1.228-7.384 2.66-13.32 8.141-10.607 4.045-6.008 15.513-6.566 57.339-20.658v-0.258c0.278-1.001 2.706-4.267 3.099-9.897 0.383-5.449 2.718-9.56 5.614-11.604 -6.746 23.685 23.144 14.953 24.208 31.108 0.084 1.273-0.974 10.149-0.813 10.969 3.355-0.679 6.721-0.684 10.359-0.645 -3.928-15.24-0.545-16.872 7.344-19.838 9.564-3.591 12.873-7.169 12.01-20.697 4.57 4.109 1.516 9.7 7.174 17.534 36.249 13.159 50.02 16.863 56.963 21.507 5.981-4.517 9.697 2.65 17.292 46.103C136.218 235.212 54.269 235.12-4.807 234.6z" fill="#39557e" stroke-width="none" opacity="1"></path><path id="SvgjsPath4938" d="M92.119 197.235c0.304-0.029 3.375-5.505 3.375-5.505 5.764-2.145 18.375 2.005 34.019-10.176C117.994 199.61 97.143 186.737 92.119 197.235zM70.115 179.378c8.754 10.018 23.629 13.732 26.773 10.686C96.885 190.135 79.619 189.396 70.115 179.378z" fill="#27446f" stroke-width="none" opacity="1"></path><path id="SvgjsPath4939" d="M73.607 149.423c0 0 0.705 6.944 0.82 11.739C72.326 156.482 71.897 155.232 73.607 149.423z" fill="#18355f" stroke-width="none" opacity="1"></path><path id="SvgjsPath4940" d="M4.781 194.15C0 207.902-0.398 222.744-3.298 234.612c-0.693-0.006-0.823 0.293-1.509 0.287 1.472-10.806-0.208-12.355 4.116-33.593 1.228-7.384 2.66-13.32 8.141-10.607 4.045-6.008 15.513-6.566 57.339-20.658v-0.258c0.278-1.001 2.706-4.267 3.099-9.897 0.345-4.904 2.622-9.431 5.25-11.325 -5.936 6.453-1.918 18.345-8.092 22.976C53.103 178.967 18.588 187.846 4.781 194.15zM190.747 188.499c-6.943-4.644-20.714-8.348-56.963-21.507 -5.658-7.834-2.604-13.425-7.174-17.534 0.063 1.001-0.018 0.613 0 1.51 2.161-0.43 2.695 15.819 7.443 18.193 19 9 45.261 17.317 59.521 22.632 6.636 10.021 8.157 26.964 13.401 42.817 1.067-0.009 0 0 1.063-0.009C200.444 191.149 196.729 183.982 190.747 188.499zM125.992 162.465c-7.33 12.798-21.646 4.662-20.242 19.81C108.488 167.635 121.171 175.921 125.992 162.465zM97.372 184.295c2.628-16.491-15.517-13.785-23.633-23.296C78.812 171.409 95.553 168.227 97.372 184.295z" fill="#4e688d" stroke-width="none" opacity="1"></path><path id="SvgjsPath4941" d="M196.139 187.915c-1.581-1.609-3.779-1.259-5.409-0.029 -7.133-4.756-26.235-9.496-56.63-21.609 0 0-2.289-2.963-3.469-8.017 -0.783-3.353-0.308-7.087-4.192-9.838 -0.749 9.286-0.411 16.736-9.51 20.304 -8.959 3.582-14.71 3.744-10.319 20.76 -2.301-0.026-6.457-0.018-9.318 0.563 -0.058-0.295 1.027-8.769 0.918-10.412 -1.014-15.376-28.515-9.625-24.93-27.551 0.33-1.649 0.454-2.542 0.187-3.81 -3.67 1.92-5.337 6.074-5.847 9.51 -0.556 3.889 0.319 4.852-3.32 12.13 0 0.011-0.01 0.021-0.01 0.03 -0.17 0.05-0.35 0.11-0.53 0.17 -41.434 13.791-52.827 14.785-56.48 20.22 -5.931-2.941-7.458 5.121-8.46 11.15 -4.398 21.597-2.602 22.344-4.2 33.61 1 0 109.661 0.96 212.96 0.01 0.36 0 0.71-0.01 1.06-0.01C208.319 233.75 202.222 193.853 196.139 187.915zM117.52 170.155c9.877-4.015 9.506-9.654 9.367-19.766 3.437 1.52 0.914 8.914 6.792 16.516 0 4.854-1.267 9.955-4.229 13.46 -5.51 6.101-14.719 9.317-22.23 9.13C104.685 173.337 107.914 174.091 117.52 170.155zM68.349 159.005c0.062-2.714 2.16-8.263 4.9-10.1 -8.723 23.076 22.427 15.489 23.73 31.92 0.027 0.457-0.38 8.333-0.39 8.84 -16.104-1.896-23.674-5.555-31.64-19.189 0.02-0.04 0.04-0.08 0.06-0.12 0.01 0.01 0.01 0 0.01 0C67.547 165.299 68.017 164.151 68.349 159.005zM-4.591 234.455c1.436-5.179 1.375-14.908 4.04-28.63 1.58-7.847 1.629-17.345 7.48-15.03 0.02 0 0.03 0.011 0.04 0.011 3.516 8.49 11.016 31.499 11.33 32.5 0.155 0.456 2.074 8.248 2.56 9.89 -2.124-16.99-11.493-39.731-12.99-42.14 4.051-4.15 3.094-2.325 35.92-12.7 7.099-2.245 19.409-7.106 20.27-7.601 9.185 19.855 28.548 19.105 32.33 19.521 -11.02 3.397-4.729 31.249-3.77 40.96 -0.163-7.896-3.465-29.31 1.25-36.84 0 0 0.648-1.301 3.14-2.38 6.946-2.627 15.325 2.951 29.95-7.34 4.758-4.518 7.13-7.39 7.13-17.53 24.029 11.337 46.962 16.747 56.11 21.7 -0.013 0.081-0.05 0.414-0.05 0.42 -1.544 13.248 1.243-1.169-4.4 28.689 -1.47 8.541-0.406 5.667-1.13 13.28 1.481-7.851-0.067-3.756 2.12-13.12 4.586-19.338 3.858-22.946 4.16-29.39 3.326-2.396 5.107 0.213 6.399 3.96 4.836 14.695 7.982 34.133 10.09 41.76C141.558 233.843 61.242 233.874-4.591 234.455zM107.847 202.681c-3.239 1.259-7.306 0.944-10.905 0.433C103.167 202.238 107.208 202.645 107.847 202.681z" fill="#0c2850" stroke-width="none" opacity="1"></path></g><g id="svga-group-head" ><g id="svga-group-ears-left" ><path id="SvgjsPath3477" d="M47.218 81.505c-0.967-2.487-8.082-6.002-11.21-5.447 -3.538 0.627-4.838 4.356-4.369 7.119 1.103 6.487 3.996 9.219 5.296 14.286 1.096 4.273 3.433 6.732 4.588 8.548 1.42 2.228 2.73 7.341 3.023 8.087 0.463 1.18 2.103 4.043 5.002 3.896 3.333-0.172 7.545-6.688 7.614-8.135C57.544 102.009 49.733 87.979 47.218 81.505z" fill="#e9b995" stroke="#bb7440" stroke-width="1.5" opacity="1"></path><path id="SvgjsPath3478" d="M47.953 107.96c0 0 0.429-1.071-0.094-2.022 -0.672-1.223-2.423-3.468-2.821-4.811 -0.325-1.098-0.16-3.445-0.213-4.593 -0.094-2.03-1.492-3.42-1.927-4.585 -2.914-7.793-6.792-12.623-9-13.626 -1.633 3.989-0.339 6.907 1.94 13.045 -1.375-8.342-0.054-10.95-0.054-10.95s4.018 3.465 6.001 11.172c0.359 1.391-1.111 4.294-0.83 5.705 0.352 1.772 4.184 5.201 5.257 6.635C47.049 105.047 47.953 107.96 47.953 107.96z" fill="#bb7440" stroke-width="none" opacity="1" stroke="none"></path></g><g id="svga-group-ears-right" ><path id="SvgjsPath3479" d="M152.52 81.505c0.967-2.487 8.082-6.002 11.211-5.447 3.539 0.627 4.838 4.356 4.369 7.119 -1.104 6.487-3.996 9.219-5.297 14.286 -1.096 4.273-3.434 6.732-4.588 8.548 -1.42 2.228-2.73 7.341-3.023 8.087 -0.463 1.18-2.104 4.043-5.002 3.896 -3.332-0.172-7.545-6.688-7.613-8.135C142.193 102.009 150.006 87.979 152.52 81.505z" fill="#e9b995" stroke="#bb7440" stroke-width="1.5" opacity="1"></path><path id="SvgjsPath3480" d="M151.785 107.96c0 0-0.43-1.071 0.094-2.022 0.672-1.223 2.424-3.468 2.82-4.811 0.324-1.098 0.16-3.445 0.215-4.593 0.094-2.03 1.49-3.42 1.926-4.585 2.914-7.793 6.793-12.623 9-13.626 1.633 3.989 0.338 6.907-1.939 13.045 1.375-8.342 0.053-10.95 0.053-10.95s-4.018 3.465-6.002 11.172c-0.357 1.391 1.111 4.294 0.83 5.705 -0.352 1.772-4.184 5.201-5.256 6.635C152.689 105.047 151.785 107.96 151.785 107.96z" fill="#bb7440" stroke-width="none" opacity="1" stroke="none"></path></g><g id="svga-group-faceshape-wrap" ><g id="svga-group-faceshape-single" ><path id="SvgjsPath4968" d="M144.004 126.997c-5.003 10.225-20.047 28.437-30.801 33.266 -5.366 2.412-21.089 2.53-26.401 0 -10.646-5.067-25.765-23.057-30.801-33.266C50.388 115.623 41.15 78.444 41.138 78.39c-1.3-4.988-1.996-10.225-2.004-15.623 -0.052-34 27.154-61.598 60.772-61.65 33.621-0.053 60.913 27.457 60.963 61.456 0.009 5.4-0.669 10.638-1.952 15.631C158.901 78.256 149.6 115.559 144.004 126.997z" fill="#e9b995" stroke-width="none" opacity="1"></path><path id="SvgjsPath4969" d="M110.152 1.982c26.994 6.338 47.097 30.814 47.052 60.039 -0.009 5.399-0.704 10.635-2.004 15.624 -0.012 0.054-8.61 37.245-14.13 48.608 -4.859 10.004-19.7 27.468-30.067 32.521 -2.163 1.055-8.694 1.555-11.001 1.555 -2.307 0-8.837-0.5-11-1.555 -10.367-5.053-25.209-22.517-30.067-32.521 -5.521-11.363-14.119-48.554-14.13-48.608 -1.3-4.988-1.996-10.225-2.004-15.624C42.756 32.796 62.857 8.32 89.853 1.982 61.03 6.877 39.087 32.232 39.134 62.767c0.008 5.398 0.704 10.635 2.004 15.623 0.012 0.054 9.232 37.241 14.863 48.607 5.052 10.199 20.207 28.085 30.801 33.266 2.658 1.301 9.305 1.855 12.954 1.853 3.646 0.003 10.791-0.552 13.447-1.853 10.594-5.182 25.748-23.066 30.801-33.266 5.631-11.366 14.852-48.553 14.862-48.607 1.3-4.988 1.996-10.225 2.004-15.623C160.918 32.232 138.975 6.877 110.152 1.982z" fill="#e1ac85" stroke-width="none" opacity="1"></path><path id="SvgjsPath4970" d="M144.004 126.997c-5.003 10.225-20.047 28.437-30.801 33.266 -5.366 2.412-21.089 2.53-26.401 0 -10.646-5.067-25.765-23.057-30.801-33.266C50.388 115.623 41.15 78.444 41.138 78.39c-1.3-4.988-1.996-10.225-2.004-15.623 -0.052-34 27.154-61.598 60.772-61.65 33.621-0.053 60.913 27.457 60.963 61.456 0.009 5.4-0.669 10.638-1.952 15.631C158.901 78.256 149.6 115.559 144.004 126.997z" fill="none" stroke="#bb7440" stroke-width="1.5" opacity="1"></path></g></g><g id="svga-group-mouth-single" ><path id="SvgjsPath4942" d="M96.227 139.237l8.297-0.207C103.563 143.5 96.884 142.858 96.227 139.237z" fill="url(#SvgjsLinearGradient4943)" opacity="1"></path><path id="SvgjsPath4946" d="M96.343 139.52c-0.371-0.05-0.315-0.579 0.08-0.542 0.043 0.006 4.308 0.546 7.878-0.215 0.386-0.075 0.5 0.455 0.13 0.534C101.634 139.895 98.015 139.755 96.343 139.52zM100.083 135.95c-1.503 0-2.96-0.521-4.424-0.776 -1.64-0.287-3.274-0.041-4.915 0.104 -1.676 0.149-5.333-0.013-6.365-0.666 -0.578-0.367-0.47-1.221 0.181-1.449 0.614-0.22 1.571 0.236 2.191 0.347 2.872 0.515 4.384-0.034 6.902-0.118 3.851-0.116 4.26 1.501 9.064 0.53 5.165-1.044 7.491-0.254 11.197-1.37 0.508-0.154 1.112-0.56 1.645-0.286 0.615 0.318 0.585 1.185-0.049 1.464 -3.406 1.502-7.174 0.895-10.955 1.526C103.073 135.502 101.596 135.95 100.083 135.95z" fill="#bb7440" stroke-width="none" opacity="1" stroke="none"></path></g><g id="svga-group-eyes-left" ><g id="svga-group-eyesback-left"><path id="SvgjsPath4254" d="M76.732 78.383c4.587 0.679 7.931 3.488 10.773 7.94 0.004 0.005 0.013 0.004 0.018 0.008 0.007 0.027 0.021 0.053 0.026 0.08 0.255 1.007-0.816 1.819-2.155 2.438 -4.771 0.609-9.359 1.489-14.194 0.87 -9.681-1.241-9.855-5.509-10.326-6.629 -0.252-1.101-0.325-1.417-0.311-2.473 2.332-1.366 4.043-1.647 5.854-2.005C68.541 78.194 73.268 77.868 76.732 78.383z" fill="url(#SvgjsRadialGradient4255)" opacity="1"></path></g><g id="svga-group-eyesiriswrapper-left" transform="translate(0.25 0)"><g id="svga-group-eyesiriscontrol-left" ><g id="svga-group-eyesiris-left" ><path id="SvgjsPath4664" d="M79.788 85.588c-0.869 3.192-4.162 5.073-7.361 4.196 -3.197-0.876-5.084-4.178-4.214-7.371 0.869-3.195 4.168-5.076 7.365-4.198C78.772 79.09 80.659 82.392 79.788 85.588z" fill="#4e60a3" stroke="#152975" stroke-width="0.5" opacity="1"></path><path id="SvgjsPath4665" d="M79.643 84.371c-0.441 3.545-3.072 5.392-5.952 5.199 -2.658-0.179-5.034-2.14-5.254-5.525 0.919-0.264 2.14 0.165 3.211 0.001 -0.003 0.039-0.017 0.074-0.018 0.113 -0.084 1.3 0.958 2.433 2.329 2.525 1.374 0.092 2.556-0.892 2.641-2.191 0.009-0.169-0.001-0.336-0.027-0.496C77.527 84.141 78.693 83.999 79.643 84.371z" fill="#6777b2" stroke-width="none" opacity="1"></path><path id="SvgjsPath4666" d="M74.867 81.998c-1.319-0.377-2.667 0.376-3.007 1.691 -0.341 1.308 0.453 2.678 1.771 3.056 1.322 0.379 2.669-0.375 3.011-1.684C76.986 83.745 76.188 82.376 74.867 81.998z" fill="#000000" stroke-width="none" opacity="0.9"></path><path id="SvgjsPath4667" d="M74.867 81.998c-1.319-0.377-2.667 0.376-3.007 1.691 -0.341 1.308 0.453 2.678 1.771 3.056 1.322 0.379 2.669-0.375 3.011-1.684C76.986 83.745 76.188 82.376 74.867 81.998z" fill="none" stroke="#152975" stroke-width="0.75" opacity="1"></path><path id="SvgjsPath4668" d="M71.16 87.657c-0.125 0.437-0.806 0.251-0.681-0.188 0.121-0.423 0.446-0.683 0.653-1.055 0.221-0.398 0.831-0.042 0.609 0.356C71.571 87.078 71.257 87.314 71.16 87.657L71.16 87.657zM72.246 86.96c-0.188 0.219-0.434 1.03-0.54 1.295 -0.17 0.422 0.513 0.604 0.681 0.188 0.058-0.145 0.256-0.863 0.359-0.983C73.04 87.116 72.543 86.614 72.246 86.96L72.246 86.96zM73.716 89.048c0.369-0.425 0.332-0.912 0.324-1.441 -0.007-0.455-0.713-0.455-0.706 0 0.004 0.293 0.092 0.701-0.117 0.942C72.92 88.891 73.417 89.392 73.716 89.048L73.716 89.048zM74.437 87.519c0.005 0.438 0.06 0.865 0.189 1.285 0.134 0.434 0.815 0.249 0.681-0.188 -0.112-0.362-0.159-0.719-0.164-1.097C75.138 87.064 74.432 87.063 74.437 87.519L74.437 87.519z" fill="#ffffff" stroke-width="none" opacity="0.5"></path><path id="SvgjsPath4669" d="M78.197 82.971c-0.695 0.417-1.74 0.042-2.333-0.839 -0.592-0.881-0.503-1.934 0.193-2.349 0.694-0.419 1.742-0.043 2.33 0.838C78.979 81.502 78.893 82.554 78.197 82.971z" fill="#ffffff" stroke-width="none" opacity="0.8"></path></g></g></g><g id="svga-group-eyesfront-left"><path id="SvgjsPath4279" d="M55.112 83.583c3.224 11.315 7.475 23.313 17.685 23.669s22.135-7.239 22.29-22.238c0.173-16.767-10.474-23.381-20.684-23.737S50.307 66.714 55.112 83.583zM60.875 83.09c-0.252-1.101-0.325-1.417-0.311-2.473 2.027-1.21 4.04-1.547 5.851-1.905 2.123-0.418 6.853-0.845 10.317-0.329 4.587 0.679 7.931 3.488 10.773 7.94 0.004 0.005 0.013 0.004 0.018 0.008 0.007 0.027 0.021 0.053 0.026 0.08 0.255 1.007-0.816 1.819-2.155 2.438 -4.771 0.609-9.359 1.489-14.194 0.87C61.519 88.478 61.345 84.21 60.875 83.09z" fill="#e9b995" stroke-width="none" opacity="1" stroke="none"></path><path id="SvgjsPath4280" d="M74.225 95.171c9.256 1.401 17.847-3.01 19.186-9.859 1.34-6.849-5.072-13.537-14.329-14.94 -9.258-1.399-17.845 3.012-19.185 9.862C58.557 87.082 64.967 93.766 74.225 95.171zM60.563 80.617c2.125-1.141 4.04-1.547 5.851-1.905 2.123-0.418 6.853-0.845 10.317-0.329 4.587 0.679 7.931 3.488 10.773 7.94 0.004 0.005 0.013 0.004 0.018 0.008 0.007 0.027 0.021 0.053 0.026 0.08 0.255 1.007-0.816 1.819-2.155 2.438 -4.771 0.609-9.359 1.489-14.194 0.87 -9.681-1.241-9.855-5.509-10.326-6.629C60.622 81.989 60.55 81.672 60.563 80.617z" fill="url(#SvgjsRadialGradient4281)" opacity="1"></path><path id="SvgjsPath4285" d="M60.875 83.09c-0.252-1.101-0.325-1.417-0.311-2.473 2.092-1.175 4.04-1.547 5.851-1.905 2.123-0.418 6.853-0.845 10.317-0.329 4.587 0.679 7.931 3.488 10.773 7.94 0.004 0.005 0.013 0.004 0.018 0.008 0.007 0.027 0.021 0.053 0.026 0.08 0.255 1.007-0.816 1.819-2.155 2.438 -4.771 0.609-9.359 1.489-14.194 0.87C61.519 88.478 61.345 84.21 60.875 83.09z" fill="url(#SvgjsRadialGradient4286)" opacity="1"></path><path id="SvgjsPath4289" d="M76.327 75.748c3.294 0.539 6.505 2.054 9.48 3.945 0.637 0.404 1.366 0.865 2.521 1.451 -0.828-0.188-1.594-0.617-2.309-1.011 0.736 0.698 1.422 1.529 1.982 2.334 -2.521-3.159-7.297-5.538-11.36-6.349 -3.902-0.779-10.989-0.264-16.251 2.042C65.208 75.449 72.237 75.08 76.327 75.748z" fill="#bb7440" stroke-width="none" opacity="1" stroke="none"></path><path id="SvgjsPath4290" d="M87.508 86.277c-2.847-4.34-6.193-7.082-10.781-7.747 -4.833-0.705-11.271-0.221-15.034 1.843 -0.308 0.169-1.607 1.249-1.401 0.117 0.874-1.167 4.322-2.523 5.993-2.928C85.03 73.019 88.582 87.854 87.508 86.277zM60.646 82.841c-0.716 2.063 0.861 6.654 10.145 7.503 6.595 0.602 15.767-1.75 14.634-1.613 -4.779 0.589-9.375 1.449-14.219 0.839C60.224 88.19 61.468 83.023 60.646 82.841z" fill="#000000" stroke-width="none" opacity="1" stroke="none"></path></g></g><g id="svga-group-eyes-right" ><g id="svga-group-eyesback-right"><path id="SvgjsPath4262" d="M122.867 78.383c-4.586 0.679-7.931 3.488-10.773 7.94 -0.004 0.005-0.012 0.004-0.018 0.008 -0.006 0.027-0.02 0.053-0.025 0.08 -0.256 1.007 0.815 1.819 2.154 2.438 4.771 0.609 9.359 1.489 14.194 0.87 9.681-1.241 9.855-5.509 10.325-6.629 0.253-1.101 0.325-1.417 0.312-2.473 -2.331-1.366-4.043-1.647-5.854-2.005C131.059 78.194 126.332 77.868 122.867 78.383z" fill="url(#SvgjsRadialGradient4263)" opacity="1"></path></g><g id="svga-group-eyesiriswrapper-right" transform="translate(-0.25 0)"><g id="svga-group-eyesiriscontrol-right" ><g id="svga-group-eyesiris-right" ><path id="SvgjsPath4670" d="M131.788 85.588c-0.869 3.192-4.162 5.073-7.362 4.196 -3.196-0.876-5.084-4.178-4.214-7.371 0.869-3.195 4.169-5.076 7.365-4.198C130.772 79.09 132.658 82.392 131.788 85.588z" fill="#4e60a3" stroke="#152975" stroke-width="0.5" opacity="1"></path><path id="SvgjsPath4671" d="M131.643 84.371c-0.44 3.545-3.072 5.392-5.951 5.199 -2.657-0.179-5.034-2.14-5.255-5.525 0.919-0.264 2.141 0.165 3.212 0.001 -0.004 0.039-0.017 0.074-0.019 0.113 -0.085 1.3 0.958 2.433 2.329 2.525 1.374 0.092 2.555-0.892 2.64-2.191 0.009-0.169-0.001-0.336-0.026-0.496C129.527 84.141 130.693 83.999 131.643 84.371z" fill="#6777b2" stroke-width="none" opacity="1"></path><path id="SvgjsPath4672" d="M126.867 81.998c-1.319-0.377-2.666 0.376-3.007 1.691 -0.341 1.308 0.453 2.678 1.771 3.056 1.322 0.379 2.669-0.375 3.011-1.684C128.986 83.745 128.188 82.376 126.867 81.998z" fill="#000000" stroke-width="none" opacity="0.9"></path><path id="SvgjsPath4673" d="M126.867 81.998c-1.319-0.377-2.666 0.376-3.007 1.691 -0.341 1.308 0.453 2.678 1.771 3.056 1.322 0.379 2.669-0.375 3.011-1.684C128.986 83.745 128.188 82.376 126.867 81.998z" fill="none" stroke="#152975" stroke-width="0.75" opacity="1"></path><path id="SvgjsPath4674" d="M123.16 87.657c-0.125 0.437-0.806 0.251-0.682-0.188 0.121-0.423 0.447-0.683 0.654-1.055 0.22-0.398 0.83-0.042 0.609 0.356C123.571 87.078 123.257 87.314 123.16 87.657L123.16 87.657zM124.246 86.96c-0.188 0.219-0.434 1.03-0.54 1.295 -0.171 0.422 0.513 0.604 0.681 0.188 0.059-0.145 0.256-0.863 0.358-0.983C125.04 87.116 124.543 86.614 124.246 86.96L124.246 86.96zM125.716 89.048c0.369-0.425 0.332-0.912 0.324-1.441 -0.007-0.455-0.713-0.455-0.706 0 0.004 0.293 0.092 0.701-0.117 0.942C124.92 88.891 125.418 89.392 125.716 89.048L125.716 89.048zM126.438 87.519c0.005 0.438 0.059 0.865 0.188 1.285 0.135 0.434 0.815 0.249 0.681-0.188 -0.112-0.362-0.159-0.719-0.164-1.097C127.138 87.064 126.432 87.063 126.438 87.519L126.438 87.519z" fill="#ffffff" stroke-width="none" opacity="0.5"></path><path id="SvgjsPath4675" d="M130.197 82.971c-0.695 0.417-1.74 0.042-2.333-0.839 -0.592-0.881-0.504-1.934 0.192-2.349 0.695-0.419 1.742-0.043 2.33 0.838C130.979 81.502 130.893 82.554 130.197 82.971z" fill="#ffffff" stroke-width="none" opacity="0.8"></path></g></g></g><g id="svga-group-eyesfront-right"><path id="SvgjsPath4300" d="M125.197 61.277c-10.211 0.356-20.857 6.97-20.685 23.737 0.154 15 12.079 22.595 22.29 22.238 10.21-0.356 16.187-17.323 17.685-23.669C148.517 66.512 135.407 60.921 125.197 61.277zM128.399 89.719c-4.835 0.619-9.423-0.261-14.194-0.87 -1.339-0.618-2.41-1.43-2.154-2.438 0.006-0.027 0.02-0.053 0.025-0.08 0.006-0.004 0.014-0.003 0.018-0.008 2.843-4.452 6.188-7.261 10.773-7.94 3.465-0.516 8.195-0.089 10.318 0.329 1.811 0.357 3.824 0.694 5.851 1.905 0.014 1.055-0.059 1.372-0.312 2.473C138.255 84.21 138.08 88.478 128.399 89.719z" fill="#e9b995" stroke-width="none" opacity="1" stroke="none"></path><path id="SvgjsPath4301" d="M139.703 80.234c-1.34-6.85-9.928-11.261-19.186-9.862 -9.257 1.403-15.669 8.091-14.328 14.94 1.339 6.849 9.93 11.26 19.186 9.859C134.633 93.766 141.043 87.082 139.703 80.234zM138.725 83.09c-0.47 1.121-0.645 5.388-10.325 6.629 -4.835 0.619-9.423-0.261-14.194-0.87 -1.339-0.618-2.41-1.43-2.154-2.438 0.006-0.027 0.02-0.053 0.025-0.08 0.006-0.004 0.014-0.003 0.018-0.008 2.843-4.452 6.188-7.261 10.773-7.94 3.465-0.516 8.195-0.089 10.318 0.329 1.811 0.357 3.727 0.764 5.851 1.905C139.05 81.672 138.978 81.989 138.725 83.09z" fill="url(#SvgjsRadialGradient4302)" opacity="1"></path><path id="SvgjsPath4306" d="M138.725 83.09c0.253-1.101 0.325-1.417 0.312-2.473 -2.092-1.175-4.04-1.547-5.851-1.905 -2.123-0.418-6.854-0.845-10.318-0.329 -4.586 0.679-7.931 3.488-10.773 7.94 -0.004 0.005-0.012 0.004-0.018 0.008 -0.006 0.027-0.02 0.053-0.025 0.08 -0.256 1.007 0.815 1.819 2.154 2.438 4.771 0.609 9.359 1.489 14.194 0.87C138.08 88.478 138.255 84.21 138.725 83.09z" fill="url(#SvgjsRadialGradient4307)" opacity="1"></path><path id="SvgjsPath4310" d="M123.273 75.748c-3.295 0.539-6.506 2.054-9.48 3.945 -0.637 0.404-1.367 0.865-2.521 1.451 0.828-0.188 1.594-0.617 2.309-1.011 -0.736 0.698-1.422 1.529-1.982 2.334 2.521-3.159 7.297-5.538 11.359-6.349 3.902-0.779 10.989-0.264 16.252 2.042C134.391 75.449 127.362 75.08 123.273 75.748z" fill="#bb7440" stroke-width="none" opacity="1" stroke="none"></path><path id="SvgjsPath4311" d="M133.314 77.563c1.672 0.405 5.119 1.761 5.994 2.928 0.205 1.132-1.094 0.052-1.402-0.117 -3.764-2.064-10.201-2.548-15.033-1.843 -4.588 0.665-7.936 3.407-10.781 7.747C111.018 87.854 114.57 73.019 133.314 77.563zM128.395 89.57c-4.844 0.61-9.439-0.25-14.219-0.839 -1.134-0.137 8.038 2.215 14.633 1.613 9.284-0.849 10.861-5.44 10.145-7.503C138.131 83.023 139.376 88.19 128.395 89.57z" fill="#000000" stroke-width="none" opacity="1" stroke="none"></path></g></g><g id="svga-group-facehighlight-single" ><path id="SvgjsPath2882" d="M141 113.974c0.035 22.622-18.292 40.994-40.938 41.025 -22.642 0.037-41.028-18.273-41.063-40.9 -0.035-22.62 18.292-41.064 40.937-41.1C122.579 72.964 140.967 91.349 141 113.974z" fill="url(#SvgjsRadialGradient2883)" opacity="1"></path><path id="SvgjsPath2886" d="M137.5 53.999c0 20.711-16.789 37.5-37.499 37.5 -20.711 0-37.501-16.789-37.501-37.5s16.79-37.5 37.501-37.5C120.711 16.499 137.5 33.288 137.5 53.999z" fill="url(#SvgjsRadialGradient2887)" opacity="1"></path></g><g id="svga-group-eyebrows-left" ><path id="SvgjsPath3580" d="M53.149 74.996c9.743-15.115 36.491 5.148 38.018-1.191 0.299-1.271-0.407-2.015-1.564-2.492C75.982 65.807 57.955 61.18 53.149 74.996z" fill="#2a232b" stroke-width="none" opacity="1"></path></g><g id="svga-group-eyebrows-right" ><path id="SvgjsPath3581" d="M146.851 74.996c-9.743-15.115-36.491 5.148-38.018-1.191 -0.299-1.271 0.407-2.015 1.564-2.492C124.018 65.807 142.045 61.18 146.851 74.996z" fill="#2a232b" stroke-width="none" opacity="1"></path></g><g id="svga-group-nose-single" ><path id="SvgjsPath4770" d="M99.084 89.999c0 0-0.887 20.454-0.765 24.946 0.035 1.275 2.489 4.617 2.322 7.054 0 0-4.788-0.349-6.345-0.898 -1.629-0.578-4.151-1.704-3.154-4.85C92.562 111.776 99.084 89.999 99.084 89.999z" fill="#daa075" stroke-width="none" opacity="1" stroke="none"></path><path id="SvgjsPath4771" d="M98.638 119.598c0 0-1.985-0.705-3.239-0.669 -1.142 0.035-1.306-0.726-1.191-1.158 0.116-0.433 0.507-0.701 1.61-0.407C96.921 117.658 98.638 119.598 98.638 119.598zM101.593 119.6c0 0 1.98-0.653 3.239-0.667 1.142-0.014 1.308-0.726 1.191-1.157 -0.116-0.435-0.508-0.705-1.61-0.411C103.31 117.662 101.593 119.6 101.593 119.6z" fill="#bb7440" stroke-width="none" opacity="1" stroke="none"></path></g><g id="svga-group-beardwrap" ><g id="svga-group-beard-single" ><path id="SvgjsPath3568" d="M100,18.13L100,18.13L100,18.13L100,18.13z" fill="#2a232b" stroke-width="none" opacity="1"></path></g></g><g id="svga-group-mustache-single" ><path id="SvgjsPath3560" d="M100,18.13L100,18.13L100,18.13L100,18.13z" fill="#2a232b" stroke-width="none" opacity="1"></path></g><g id="svga-group-hair-front" ><path id="SvgjsPath3577" d="M44.974,94.895c-2.423-8.815-3.728-16.533-5.54-24.585l0.083-0.019c-0.686-1.689-3.162-15.06-3.185-15.204c-2.525-17.77,4.993-18.784,4.84-26.198c3.165,1.585,6.242,0.799,9.019-1.365c-2.918-1.499-1.997-1.736-5.872-4.095c2.731-0.472,4.326,0.165,6.646,0.454c-1.983-1.983-5.875-6.028-8.404-5.492l-0.165-0.354c3.661-2.857,8.548,3.091,12.954,1.48C55.483,3.144,79.417-0.256,85.242-2.689c7.755-2.951,15.856-9.441,21.553-10.021c-3.225,3.241-5.2,8.449-5.347,12.358c4.698-4.486,5.03-4.355,12.151-12.264c0,6.364-1.763,7.163-4.051,10.898c6.211-4.07,13.955-15.489,25.881-17.235l0.131,0.37c-4.298,2.532-7.624,6.804-9.898,12.708c2.257-2.726,5.451-5.683,8.986-6.218l0.133,0.369c-2.215,1.325-6.554,5.742-7.547,13.138c4.381-4.893,11.35-8.948,16.134-10.48l0.187,0.346c-4.392,3.573-6.153,9.828-7.146,15.146c3.08-4.58,4.872-5.624,8.747-7.548c-1.247,1.865-1.166,1.539-2.158,3.566c2.396,6.123,10.313,6.361,11.666,17.059c1.63-1.424,2.277-1.781,4.151-3.092l0.282,0.272c-1.408,2.187-2.569,6.06-3.342,8.652c2.78-2.123,7.073-3.687,10.096-4.778l0.211,0.328c-2.551,2.593-5.648,6.546-6.162,10.834c1-0.592,1.048-0.524,2.35-1.466c0,3.081,0.105,2.688,0.127,4.105c1.257-1.125,1.45-1.282,2.276-2.181c-0.183,32.362-1.845,25.912-6.317,48.466c-0.784,3.963-2.171,10.883-3.061,14.207l-6.049,1.039c1.87-22.394-0.093-17.512,1.267-31.604c2.012-20.779-14.804-37.812-37.025-32.237c-4.496,1.128-22.44,1.127-26.934,0c-24.547-6.163-33.391,8.18-36.026,33.278c-1.291,12.318-1.607,8.161,0.267,30.563L44.974,94.895z" fill="#b79675" stroke-width="none" opacity="1"></path><path id="SvgjsPath3578" d="M162.376,34.359c-0.021-1.418-0.127-1.024-0.127-4.105c-1.302,0.941-1.35,0.874-2.35,1.466c0.514-4.288,3.611-8.241,6.162-10.834l-0.211-0.328c-3.022,1.092-7.315,2.655-10.096,4.778c0.772-2.592,1.934-6.465,3.342-8.652l-0.282-0.272c-1.874,1.311-2.521,1.668-4.151,3.092c-1.353-10.697-9.27-10.936-11.666-17.059c0.992-2.027,0.911-1.701,2.158-3.566c-3.875,1.924-5.667,2.968-8.747,7.548c0.993-5.318,2.755-11.573,7.146-15.146l-0.187-0.346c-4.784,1.532-11.753,5.587-16.134,10.48c0.993-7.396,5.332-11.813,7.547-13.138l-0.133-0.369c-3.535,0.535-6.729,3.493-8.986,6.218c2.274-5.904,5.601-10.176,9.898-12.708l-0.131-0.37c-11.926,1.746-19.67,13.165-25.881,17.235c2.288-3.735,4.051-4.535,4.051-10.898c-7.121,7.909-7.453,7.778-12.151,12.264c0.146-3.909,2.122-9.118,5.347-12.358c-5.696,0.58-13.797,7.069-21.553,10.021C79.417-0.256,55.483,3.144,55.35,19.518c-4.406,1.611-9.293-4.337-12.954-1.48l0.165,0.354c2.529-0.537,6.421,3.508,8.404,5.492c-2.319-0.289-3.915-0.926-6.646-0.454c3.875,2.359,2.954,2.596,5.872,4.095c-2.777,2.164-5.854,2.95-9.019,1.365c0.153,7.415-7.366,8.429-4.84,26.198c0.023,0.144,2.499,13.515,3.185,15.204l-0.083,0.019c1.812,8.052,3.117,15.771,5.54,24.585L45,94.899c-0.661-16.442-11.02-39.816-4.941-54.788C40.852,38.156,43.92,33,43.92,33s9.627-1.264,10.08-5c0,0-2-1-3-2c2,1,2-2,4-1c0-2-3-1-3-3c2,0,4,0,6,2c-1-5,0-10,4-13C72,3,85,4,95-4c-1,5-2,10-2,15c6-3,8-9,13-13c1,4-1,9-1,13c3-7,7-14,16-16c-4,4-4,10-4,15c0-4,4-6,5-9c0,4,0,8,0,12c2-6,6-9,11-11c-4,4-3,8-4,13c3-3,7-4,10-7c3,6,1,11,1,17c1-5,6-8,9-12c1,5,1,10,0,15c1-3,3-5,4-8c0,4.86-0.668,9.062-1.98,13.142c1.255-1.452,3.304-2.111,3.98-4.142c0,4.325,0,7.904,0,12.027c0.58-1.192,2.29-1.608,3-3.027c-0.854,3.413-0.254,6.103-0.059,9.302c0.371-1.96,2.258-3.162,2.94-4.967c0.04-0.778,0.081-1.557,0.118-2.335c0.229,0.912,0.135,1.664-0.118,2.335c-0.912,17.771-2.593,35.516-6.256,52.628l0.648-0.111c0.89-3.324,2.276-10.244,3.061-14.207c4.473-22.554,6.135-16.104,6.317-48.466C163.826,33.078,163.633,33.235,162.376,34.359z" fill="#c6ac93" stroke-width="none" opacity="1"></path><path id="SvgjsPath3579" d="M167.779,19.695c-4.949,0.834-8.406,2.438-11.05,4.25c0.385-1.005,2.193-6.67,4.14-9.05c-2.99,1.333-4.72,2.763-5.72,3.51c0-1.032-0.398-2.224-0.59-2.84c-0.189-0.515-0.348-1.117-1.271-2.62c-5.171-7.296-5.494-4.244-9.729-9.83c0.772-1.811,1.889-3.572,3.29-5.03c-3.908,0.555-5.965,2.075-8.44,4.51c-0.04,0.04-0.07,0.08-0.1,0.12c1.551-6.126,4.59-11.437,10.56-13.43c-7.384-0.268-16.525,5.192-21.12,10.64c1.984-6.381,4.646-9.421,8.601-12.25c-2.846-0.421-5.635,0.742-7.841,2.58c2.541-4.397,6.317-7.899,9.351-9.53c-0.431-0.01-0.94-0.04-1.5,0c-0.777-0.199-5.479,0.566-7.16,1.29c-8.329,3.252-14.389,10.822-16.99,13.28c1.916-3.098,2.01-5.298,1.66-8.52c-0.655,0.563-11.615,11.055-11.75,11.19c0.777-4.309,2.245-6.937,5.02-10.79c-4.947-0.926-17.332,7.217-25.01,9.39c-8.044,2.179-28.004,6.723-27.09,22.7c-4.295,0.819-10.584-6.077-13.88-0.29c2.646-1.57,6.151,2.21,8.59,4.37c-1-0.163-4.343-0.948-5.96,0.13c1.894,0.735,3.55,2.932,5.89,4.1c0.03,0.01,0.06,0.02,0.09,0.04c-2.139,1.128-4.667,2.034-6.99,1.39c-0.35-0.1-0.58-0.16-0.58-0.17c-0.27-0.12-0.56-0.24-0.87-0.38h-0.01l-0.01-0.01c-0.13-0.07-0.26-0.14-0.4-0.21c0.695,5.608-7.817,10.155-6.88,22.02c0.385,7.301,4.949,29.508,10.686,44.566l0.483,0.144c-2.392-8.626-3.777-16.74-5.569-24.701c-0.156,0-3.073-15.044-3.1-15.21c-2.506-17.631,4.994-18.91,4.85-25.84c3.121,1.561,6.532,0.436,9.18-1.73c-3.118-1.551-2.453-1.988-5.68-3.95c2.163-0.374,4.803,0.483,6.62,0.6c-2.346-2.346-6.299-6.51-8.98-5.94c3.568-2.785,8.497,3.271,13.03,1.46c0-16.383,23.723-19.635,29.77-22.16c7.271-2.766,16.283-9.476,20.939-9.95c-2.44,2.458-5.02,7.901-5.02,12.58c4.834-4.638,5.31-4.615,12.16-12.22c0,6.014-2.247,7.088-4.431,10.97c6.414-3.698,14.179-15.828,26.49-17.63c-5.154,3.037-8.435,8.325-10.41,13.97c2.352-3.059,5.8-6.53,9.63-7.11c-2.009,1.202-6.861,5.782-7.72,13.93c4.345-5.114,11.586-9.346,16.47-10.91c-4.605,3.748-6.368,10.371-7.39,16.22c1.687-2.573,3.357-4.897,5.97-6.54c0.011-0.01,0.03-0.02,0.04-0.02c1.029-0.699,0.76-0.509,2.521-1.39c-0.669,1-0.731,0.87-1.79,3.04c2.426,6.377,10.523,6.413,11.729,17.47c1.857-1.647,2.441-1.944,4.42-3.33c-1.542,2.394-2.784,6.768-3.55,9.32c2.905-2.485,8.279-4.33,10.54-5.15c-3,3.05-5.913,7.096-6.26,11.36c0.614-0.413,1.394-0.74,2.39-1.46c0,2.724,0.13,2.36,0.13,4.16c0.526-0.481,1.72-1.51,2.271-2.11c-0.196,31.716-1.88,25.564-6.311,47.91c-1.658,8.376-2.533,12.25-3.081,14.283l0.428-0.087c3.584-10.751,10.737-35.042,10.414-47.616c-0.033-4.7-1.059-14.5-1.11-15.5c-0.021,0.018-2.084,1.97-2.11,1.97c0-0.511-0.21-2.685-0.21-3.87c-0.353,0.271-1.095,0.778-2.09,1.36C161.758,26.981,163.857,24.394,167.779,19.695z" fill="#895c2f" stroke-width="none" opacity="1"></path></g><g id="svga-group-glasses-single" ><path id="SvgjsPath3447" d="M100,18.13L100,18.13L100,18.13L100,18.13z" fill="#26120b" stroke-width="none" opacity="1"></path></g></g></g></g><defs id="SvgjsDefs1001"><radialGradient id="SvgjsRadialGradient2883" cx="100" cy="114" r="41" gradientUnits="userSpaceOnUse" class="svga-on-canvas-facehighlight-gradient-single-0"><stop id="SvgjsStop2884" stop-opacity="0.5" stop-color="#f8d3b8" offset="0" ></stop><stop id="SvgjsStop2885" stop-opacity="0" stop-color="#e9b995" offset="0.9" ></stop></radialGradient><radialGradient id="SvgjsRadialGradient2887" cx="100" cy="54" r="37" gradientUnits="userSpaceOnUse" class="svga-on-canvas-facehighlight-gradient-single-1"><stop id="SvgjsStop2888" stop-opacity="0.5" stop-color="#f8d3b8" offset="0" ></stop><stop id="SvgjsStop2889" stop-opacity="0" stop-color="#e9b995" offset="0.9" ></stop></radialGradient><radialGradient id="SvgjsRadialGradient4255" cx="125.903" cy="85.096" r="13.25" gradientTransform="matrix(-1.0996 0.0423 0.0635 0.9207 206.5488 0.5932)" gradientUnits="userSpaceOnUse" class="svga-on-canvas-eyesback-gradient-left-0"><stop id="SvgjsStop4256" stop-opacity="1" stop-color="#ffffff" offset="0" ></stop><stop id="SvgjsStop4257" stop-opacity="1" stop-color="#fdfefe" offset="0.544" ></stop><stop id="SvgjsStop4258" stop-opacity="1" stop-color="#f6f8f9" offset="0.74" ></stop><stop id="SvgjsStop4259" stop-opacity="1" stop-color="#eaeff2" offset="0.879" ></stop><stop id="SvgjsStop4260" stop-opacity="1" stop-color="#d9e3e8" offset="0.992" ></stop><stop id="SvgjsStop4261" stop-opacity="1" stop-color="#d8e2e7" offset="1" ></stop></radialGradient><radialGradient id="SvgjsRadialGradient4263" cx="125.541" cy="85.113" r="13.249" gradientTransform="matrix(1.0996 0.0423 -0.0635 0.9207 -6.5488 0.5932)" gradientUnits="userSpaceOnUse" class="svga-on-canvas-eyesback-gradient-right-0"><stop id="SvgjsStop4264" stop-opacity="1" stop-color="#ffffff" offset="0" ></stop><stop id="SvgjsStop4265" stop-opacity="1" stop-color="#fdfefe" offset="0.544" ></stop><stop id="SvgjsStop4266" stop-opacity="1" stop-color="#f6f8f9" offset="0.74" ></stop><stop id="SvgjsStop4267" stop-opacity="1" stop-color="#eaeff2" offset="0.879" ></stop><stop id="SvgjsStop4268" stop-opacity="1" stop-color="#d9e3e8" offset="0.992" ></stop><stop id="SvgjsStop4269" stop-opacity="1" stop-color="#d8e2e7" offset="1" ></stop></radialGradient><radialGradient id="SvgjsRadialGradient4271" cx="125.903" cy="85.096" r="13.25" gradientTransform="matrix(-1.0996 0.0423 0.0635 0.9207 206.5488 0.5932)" gradientUnits="userSpaceOnUse" class="svga-on-canvas-eyesfront-gradient-left-0"><stop id="SvgjsStop4272" stop-opacity="1" stop-color="#ffffff" offset="0" ></stop><stop id="SvgjsStop4273" stop-opacity="1" stop-color="#fdfefe" offset="0.544" ></stop><stop id="SvgjsStop4274" stop-opacity="1" stop-color="#f6f8f9" offset="0.74" ></stop><stop id="SvgjsStop4275" stop-opacity="1" stop-color="#eaeff2" offset="0.879" ></stop><stop id="SvgjsStop4276" stop-opacity="1" stop-color="#d9e3e8" offset="0.992" ></stop><stop id="SvgjsStop4277" stop-opacity="1" stop-color="#d8e2e7" offset="1" ></stop></radialGradient><radialGradient id="SvgjsRadialGradient4281" cx="123.371" cy="81.442" fx="136.805" fy="80.36" r="17.038" gradientTransform="matrix(0.9884 0.1367 0.1336 -0.7354 -56.0677 125.3)" gradientUnits="userSpaceOnUse" class="svga-on-canvas-eyesfront-gradient-left-3"><stop id="SvgjsStop4282" stop-opacity="1" stop-color="#daa075" offset="0" ></stop><stop id="SvgjsStop4283" stop-opacity="0.3" stop-color="#daa075" offset="0.7" ></stop><stop id="SvgjsStop4284" stop-opacity="0" stop-color="#e9b995" offset="1" ></stop></radialGradient><radialGradient id="SvgjsRadialGradient4286" cx="78.965" cy="81.143" r="26.237" gradientTransform="matrix(0.7183 -0.06 0.0803 0.6143 8.7915 49.2595)" gradientUnits="userSpaceOnUse" class="svga-on-canvas-eyesfront-gradient-left-4"><stop id="SvgjsStop4287" stop-opacity="0" stop-color="#000000" offset="0.95" ></stop><stop id="SvgjsStop4288" stop-opacity="0.2" stop-color="#000000" offset="1" ></stop></radialGradient><radialGradient id="SvgjsRadialGradient4292" cx="125.541" cy="85.113" r="13.249" gradientTransform="matrix(1.0996 0.0423 -0.0635 0.9207 -6.5488 0.5932)" gradientUnits="userSpaceOnUse" class="svga-on-canvas-eyesfront-gradient-right-0"><stop id="SvgjsStop4293" stop-opacity="1" stop-color="#ffffff" offset="0" ></stop><stop id="SvgjsStop4294" stop-opacity="1" stop-color="#fdfefe" offset="0.544" ></stop><stop id="SvgjsStop4295" stop-opacity="1" stop-color="#f6f8f9" offset="0.74" ></stop><stop id="SvgjsStop4296" stop-opacity="1" stop-color="#eaeff2" offset="0.879" ></stop><stop id="SvgjsStop4297" stop-opacity="1" stop-color="#d9e3e8" offset="0.992" ></stop><stop id="SvgjsStop4298" stop-opacity="1" stop-color="#d8e2e7" offset="1" ></stop></radialGradient><radialGradient id="SvgjsRadialGradient4302" cx="122.972" cy="81.425" fx="136.406" fy="80.344" r="17.037" gradientTransform="matrix(-0.9884 0.1367 -0.1336 -0.7354 255.271 125.3424)" gradientUnits="userSpaceOnUse" class="svga-on-canvas-eyesfront-gradient-right-3"><stop id="SvgjsStop4303" stop-opacity="1" stop-color="#daa075" offset="0" ></stop><stop id="SvgjsStop4304" stop-opacity="0.3" stop-color="#daa075" offset="0.7" ></stop><stop id="SvgjsStop4305" stop-opacity="0" stop-color="#e9b995" offset="1" ></stop></radialGradient><radialGradient id="SvgjsRadialGradient4307" cx="79.515" cy="81.186" r="26.237" gradientTransform="matrix(-0.7183 -0.06 -0.0803 0.6143 191.2076 49.2665)" gradientUnits="userSpaceOnUse" class="svga-on-canvas-eyesfront-gradient-right-4"><stop id="SvgjsStop4308" stop-opacity="0" stop-color="#000000" offset="0.95" ></stop><stop id="SvgjsStop4309" stop-opacity="0.2" stop-color="#000000" offset="1" ></stop></radialGradient><radialGradient id="SvgjsRadialGradient4620" cx="-568.659" cy="-521.042" r="59.751" gradientTransform="matrix(0.096 -0.0248 0.0245 0.0961 141.2814 119.9893)" gradientUnits="userSpaceOnUse" class="svga-on-canvas-eyesiris-gradient-left-1"><stop id="SvgjsStop4621" stop-opacity="1" stop-color="#ffffff" offset="0" ></stop><stop id="SvgjsStop4622" stop-opacity="0" stop-color="#ffffff" offset="1" ></stop></radialGradient><radialGradient id="SvgjsRadialGradient4624" cx="-582.838" cy="-519.099" r="59.745" gradientTransform="matrix(0.0991 8.856319e-004 -0.0011 0.0991 131.1134 135.9855)" gradientUnits="userSpaceOnUse" class="svga-on-canvas-eyesiris-gradient-left-2"><stop id="SvgjsStop4625" stop-opacity="1" stop-color="#ffffff" offset="0" ></stop><stop id="SvgjsStop4626" stop-opacity="0" stop-color="#ffffff" offset="1" ></stop></radialGradient><linearGradient id="SvgjsLinearGradient4630" x1="122.67" y1="88.268" x2="123.606" y2="87.152" gradientTransform="matrix(1 0 0 1 -52 0)" gradientUnits="userSpaceOnUse" class="svga-on-canvas-eyesiris-gradient-left-5"><stop id="SvgjsStop4631" stop-opacity="1" stop-color="#ffffff" offset="0" ></stop><stop id="SvgjsStop4632" stop-opacity="0" stop-color="#ffffff" offset="1" ></stop></linearGradient><linearGradient id="SvgjsLinearGradient4634" x1="127.212" y1="82.296" x2="126.463" y2="83.189" gradientTransform="matrix(1 0 0 1 -52 0)" gradientUnits="userSpaceOnUse" class="svga-on-canvas-eyesiris-gradient-left-6"><stop id="SvgjsStop4635" stop-opacity="1" stop-color="#ffffff" offset="0" ></stop><stop id="SvgjsStop4636" stop-opacity="0" stop-color="#ffffff" offset="1" ></stop></linearGradient><linearGradient id="SvgjsLinearGradient4638" x1="129.636" y1="79.822" x2="127.91" y2="81.879" gradientTransform="matrix(1 0 0 1 -52 0)" gradientUnits="userSpaceOnUse" class="svga-on-canvas-eyesiris-gradient-left-7"><stop id="SvgjsStop4639" stop-opacity="1" stop-color="#ffffff" offset="0" ></stop><stop id="SvgjsStop4640" stop-opacity="0" stop-color="#ffffff" offset="1" ></stop></linearGradient><radialGradient id="SvgjsRadialGradient4643" cx="-568.654" cy="-521.042" r="59.752" gradientTransform="matrix(0.096 -0.0248 0.0245 0.0961 193.2804 119.9894)" gradientUnits="userSpaceOnUse" class="svga-on-canvas-eyesiris-gradient-right-1"><stop id="SvgjsStop4644" stop-opacity="1" stop-color="#ffffff" offset="0" ></stop><stop id="SvgjsStop4645" stop-opacity="0" stop-color="#ffffff" offset="1" ></stop></radialGradient><radialGradient id="SvgjsRadialGradient4647" cx="-582.833" cy="-519.102" r="59.747" gradientTransform="matrix(0.0991 8.856319e-004 -0.0011 0.0991 183.1126 135.9856)" gradientUnits="userSpaceOnUse" class="svga-on-canvas-eyesiris-gradient-right-2"><stop id="SvgjsStop4648" stop-opacity="1" stop-color="#ffffff" offset="0" ></stop><stop id="SvgjsStop4649" stop-opacity="0" stop-color="#ffffff" offset="1" ></stop></radialGradient><linearGradient id="SvgjsLinearGradient4653" x1="122.67" y1="88.268" x2="123.606" y2="87.152" gradientUnits="userSpaceOnUse" class="svga-on-canvas-eyesiris-gradient-right-5"><stop id="SvgjsStop4654" stop-opacity="1" stop-color="#ffffff" offset="0" ></stop><stop id="SvgjsStop4655" stop-opacity="0" stop-color="#ffffff" offset="1" ></stop></linearGradient><linearGradient id="SvgjsLinearGradient4657" x1="127.212" y1="82.296" x2="126.463" y2="83.189" gradientUnits="userSpaceOnUse" class="svga-on-canvas-eyesiris-gradient-right-6"><stop id="SvgjsStop4658" stop-opacity="1" stop-color="#ffffff" offset="0" ></stop><stop id="SvgjsStop4659" stop-opacity="0" stop-color="#ffffff" offset="1" ></stop></linearGradient><linearGradient id="SvgjsLinearGradient4661" x1="129.636" y1="79.822" x2="127.91" y2="81.879" gradientUnits="userSpaceOnUse" class="svga-on-canvas-eyesiris-gradient-right-7"><stop id="SvgjsStop4662" stop-opacity="1" stop-color="#ffffff" offset="0" ></stop><stop id="SvgjsStop4663" stop-opacity="0" stop-color="#ffffff" offset="1" ></stop></linearGradient><linearGradient id="SvgjsLinearGradient4943" x1="100" y1="142" x2="100" y2="139" gradientUnits="userSpaceOnUse" class="svga-on-canvas-mouth-gradient-single-0"><stop id="SvgjsStop4944" stop-opacity="1" stop-color="#e1ac85" offset="0.1" ></stop><stop id="SvgjsStop4945" stop-opacity="1" stop-color="#daa075" offset="1" ></stop></linearGradient><linearGradient id="SvgjsLinearGradient4972" x1="100" y1="171" x2="100" y2="128" gradientUnits="userSpaceOnUse" class="svga-on-canvas-chinshadow-gradient-single-0"><stop id="SvgjsStop4973" stop-opacity="0.8" stop-color="#daa075" offset="0" ></stop><stop id="SvgjsStop4974" stop-opacity="1" stop-color="#bb7440" offset="0.7" ></stop></linearGradient><radialGradient id="SvgjsRadialGradient5014" cx="100" cy="225" r="250" gradientUnits="userSpaceOnUse" class="svga-on-canvas-backs-gradient-single-1"><stop id="SvgjsStop5015" stop-opacity="0" stop-color="#14305c" offset="0" ></stop><stop id="SvgjsStop5016" stop-opacity="1" stop-color="#09234d" offset="1" ></stop></radialGradient></defs></svg>